<svg width="65" height="70" viewBox="0 0 65 70" fill="none" xmlns="http://www.w3.org/2000/svg">
<path d="M58.5116 37.1792C57.0368 36.3208 55.0556 35.5943 52.5682 35C55.0556 34.4057 57.0368 33.6792 58.5116 32.8208C59.8618 32.1239 61.0565 31.1602 62.0234 29.988C62.9902 28.8159 63.709 27.4596 64.1363 26.0015C64.5635 24.5434 64.6904 23.0137 64.5091 21.5051C64.3278 19.9965 63.8421 18.5404 63.0815 17.225C62.3209 15.9096 61.3012 14.7624 60.0842 13.8527C58.8672 12.943 57.4781 12.2898 56.0012 11.9327C54.5243 11.5756 52.9903 11.522 51.4921 11.7752C49.9939 12.0284 48.5627 12.5831 47.2852 13.4057C45.7993 14.2311 44.1814 15.5849 42.4314 17.434C43.1578 14.9906 43.521 12.9104 43.521 11.2264C43.521 8.24899 42.3383 5.3935 40.2329 3.28814C38.1275 1.18278 35.2721 0 32.2946 0C29.3172 0 26.4617 1.18278 24.3564 3.28814C22.251 5.3935 21.0682 8.24899 21.0682 11.2264C21.0682 12.9104 21.4314 14.9906 22.1578 17.434C20.4078 15.5849 18.7899 14.2311 17.3041 13.4057C16.0265 12.5831 14.5953 12.0284 13.0971 11.7752C11.5989 11.522 10.0649 11.5756 8.58802 11.9327C7.11114 12.2898 5.72211 12.943 4.50508 13.8527C3.28805 14.7624 2.26836 15.9096 1.50777 17.225C0.747173 18.5404 0.261514 19.9965 0.0802087 21.5051C-0.101097 23.0137 0.025724 24.5434 0.452989 26.0015C0.880254 27.4596 1.59907 28.8159 2.56589 29.988C3.53272 31.1602 4.72743 32.1239 6.07765 32.8208C7.5745 33.6792 9.55564 34.4057 12.021 35C9.55564 35.5943 7.5745 36.3208 6.07765 37.1792C3.94232 38.4196 2.27553 40.3294 1.3354 42.6128C0.395281 44.8963 0.234286 47.426 0.87735 49.8103C1.52041 52.1945 2.93166 54.3002 4.89252 55.8012C6.85338 57.3022 9.25445 58.1148 11.7239 58.1132C13.6861 58.1139 15.6129 57.5895 17.3041 56.5943C18.7899 55.7689 20.4078 54.4151 22.1578 52.566C21.4314 55.0094 21.0682 57.0896 21.0682 58.7736C21.0682 61.751 22.251 64.6065 24.3564 66.7119C26.4617 68.8172 29.3172 70 32.2946 70C35.2721 70 38.1275 68.8172 40.2329 66.7119C42.3383 64.6065 43.521 61.751 43.521 58.7736C43.521 57.0896 43.1578 55.0094 42.4314 52.566C44.1814 54.4151 45.7993 55.7689 47.2852 56.5943C48.9764 57.5895 50.9031 58.1139 52.8654 58.1132C55.3348 58.1148 57.7359 57.3022 59.6967 55.8012C61.6576 54.3002 63.0688 52.1945 63.7119 49.8103C64.355 47.426 64.194 44.8963 63.2539 42.6128C62.3137 40.3294 60.6469 38.4196 58.5116 37.1792ZM25.0305 35C25.0305 33.5633 25.4565 32.1588 26.2547 30.9643C27.0529 29.7697 28.1874 28.8386 29.5148 28.2888C30.8421 27.739 32.3027 27.5951 33.7118 27.8754C35.1209 28.1557 36.4152 28.8476 37.4312 29.8635C38.4471 30.8794 39.1389 32.1737 39.4192 33.5828C39.6995 34.9919 39.5556 36.4525 39.0058 37.7799C38.456 39.1072 37.525 40.2417 36.3304 41.0399C35.1358 41.8381 33.7313 42.2642 32.2946 42.2642C30.3707 42.2555 28.5281 41.4874 27.1677 40.1269C25.8073 38.7665 25.0392 36.9239 25.0305 35ZM49.2663 16.8066C50.9389 15.8433 52.9257 15.5839 54.7896 16.0855C56.6534 16.5871 58.2417 17.8085 59.205 19.4811C60.1683 21.1537 60.4277 23.1405 59.9261 25.0044C59.4245 26.8682 58.2031 28.4565 56.5305 29.4198C54.0871 30.8066 49.4975 31.8632 43.2239 32.4576C42.7248 30.2904 41.5859 28.3232 39.955 26.8113C43.6201 21.6604 46.8229 18.2264 49.2663 16.8066ZM32.2946 3.96226C34.2185 3.97095 36.0611 4.73907 37.4216 6.09948C38.782 7.4599 39.5501 9.30252 39.5588 11.2264C39.5588 14.033 38.172 18.5236 35.5635 24.2689C33.4343 23.6081 31.1549 23.6081 29.0258 24.2689C26.4173 18.5236 25.0305 14.033 25.0305 11.2264C25.0392 9.30252 25.8073 7.4599 27.1677 6.09948C28.5281 4.73907 30.3707 3.97095 32.2946 3.96226ZM5.41727 19.4811C6.38404 17.8213 7.96626 16.6097 9.82068 16.109C11.6751 15.6083 13.6521 15.8589 15.3229 16.8066C17.7663 18.2264 20.9692 21.6604 24.6343 26.8113C23.0034 28.3232 21.8645 30.2904 21.3654 32.4576C15.0918 31.8632 10.5022 30.8066 8.05878 29.4198C7.23201 28.9414 6.50772 28.3046 5.92737 27.5459C5.34702 26.7872 4.92199 25.9215 4.67663 24.9984C4.43128 24.0752 4.3704 23.1127 4.49749 22.166C4.62458 21.2193 4.93713 20.3069 5.41727 19.4811ZM15.3229 53.1934C13.6503 54.1567 11.6635 54.4161 9.79968 53.9145C7.93582 53.4129 6.34754 52.1915 5.38425 50.5189C4.42097 48.8463 4.16158 46.8595 4.66315 44.9956C5.16472 43.1318 6.38616 41.5435 8.05878 40.5802C10.5022 39.1934 15.0918 38.1368 21.3654 37.5425C21.8645 39.7096 23.0034 41.6768 24.6343 43.1887C20.9692 48.3396 17.7663 51.7736 15.3229 53.1934ZM32.2946 66.0377C30.3707 66.0291 28.5281 65.2609 27.1677 63.9005C25.8073 62.5401 25.0392 60.6975 25.0305 58.7736C25.0305 55.967 26.4173 51.4764 29.0258 45.7311C31.1549 46.3919 33.4343 46.3919 35.5635 45.7311C38.172 51.4764 39.5588 55.967 39.5588 58.7736C39.5501 60.6975 38.782 62.5401 37.4216 63.9005C36.0611 65.2609 34.2185 66.0291 32.2946 66.0377ZM59.172 50.5189C58.2052 52.1787 56.623 53.3903 54.7686 53.891C52.9142 54.3917 50.9371 54.1411 49.2663 53.1934C46.8229 51.7736 43.6201 48.3396 39.955 43.1887C41.5859 41.6768 42.7248 39.7096 43.2239 37.5425C49.4975 38.1368 54.0871 39.1934 56.5305 40.5802C57.3572 41.0586 58.0815 41.6954 58.6619 42.4541C59.2422 43.2128 59.6673 44.0785 59.9126 45.0017C60.158 45.9248 60.2189 46.8873 60.0918 47.834C59.9647 48.7807 59.6521 49.6931 59.172 50.5189Z" fill="white"/>
</svg>
