<svg width="50" height="74" viewBox="0 0 50 74" fill="none" xmlns="http://www.w3.org/2000/svg">
<path d="M47.5 36.7882C47.5 48.5027 37.315 58 24.75 58C12.185 58 2 48.5027 2 36.7882C2 25.072 24.75 2 24.75 2C24.75 2 47.5 25.072 47.5 36.7882Z" stroke="white" stroke-width="4" stroke-linejoin="round"/>
<path d="M24.75 2V58M24.75 58V72" stroke="white" stroke-width="4" stroke-linecap="round" stroke-linejoin="round"/>
<path d="M47.5 36.7882C47.5 48.5027 37.315 58 24.75 58C12.185 58 2 48.5027 2 36.79M47.5 36.7882C47.5 25.072 24.75 2 24.75 2C24.75 2 2 25.072 2 36.7882" stroke="white" stroke-width="4" stroke-linejoin="round"/>
</svg>
