<svg width="67" height="76" viewBox="0 0 67 76" fill="none" xmlns="http://www.w3.org/2000/svg">
<path d="M33.3109 3V73M42.3297 10.5C39.6078 12.1405 36.489 13.0051 33.3109 13C30.1329 13.0051 27.0141 12.1405 24.2922 10.5M24.2922 65.5C27.0161 63.8641 30.1336 62.9999 33.3109 62.9999C36.4883 62.9999 39.6058 63.8641 42.3297 65.5M63.6219 20.5L3 55.5M61.6344 32.0625C58.8552 30.5212 56.5477 28.2528 54.9593 25.5003C53.3708 22.7478 52.5612 19.615 52.6172 16.4375M4.9875 43.9375C7.76669 45.4788 10.0741 47.7472 11.6626 50.4997C13.2511 53.2522 14.0607 56.385 14.0047 59.5625M3 20.5L63.6219 55.5M4.9875 32.0625C7.76669 30.5212 10.0741 28.2528 11.6626 25.5003C13.2511 22.7478 14.0607 19.615 14.0047 16.4375M61.6344 43.9375C58.8552 45.4788 56.5477 47.7472 54.9593 50.4997C53.3708 53.2522 52.5612 56.385 52.6172 59.5625" stroke="white" stroke-width="5" stroke-linecap="round" stroke-linejoin="round"/>
</svg>
