<svg width="70" height="70" viewBox="0 0 70 70" fill="none" xmlns="http://www.w3.org/2000/svg">
<path d="M35 15.1667C31.0773 15.1667 27.2428 16.3299 23.9812 18.5092C20.7196 20.6885 18.1775 23.786 16.6764 27.4101C15.1753 31.0342 14.7825 35.022 15.5478 38.8693C16.313 42.7166 18.202 46.2505 20.9757 49.0243C23.7495 51.798 27.2834 53.687 31.1307 54.4522C34.978 55.2175 38.9658 54.8247 42.5899 53.3236C46.214 51.8225 49.3115 49.2804 51.4908 46.0188C53.6701 42.7572 54.8333 38.9227 54.8333 35C54.8256 29.7422 52.7336 24.702 49.0158 20.9842C45.298 17.2664 40.2578 15.1744 35 15.1667ZM35 50.1667C32.0003 50.1667 29.068 49.2772 26.5739 47.6106C24.0797 45.9441 22.1358 43.5754 20.9878 40.804C19.8399 38.0327 19.5395 34.9832 20.1248 32.0411C20.71 29.0991 22.1544 26.3966 24.2755 24.2755C26.3966 22.1544 29.0991 20.71 32.0411 20.1248C34.9832 19.5395 38.0327 19.8399 40.804 20.9878C43.5754 22.1358 45.9441 24.0797 47.6106 26.5739C49.2772 29.068 50.1667 32.0003 50.1667 35C50.1667 39.0224 48.5688 42.8801 45.7244 45.7244C42.8801 48.5688 39.0224 50.1667 35 50.1667ZM32.6667 8.16667V2.33333C32.6667 1.71449 32.9125 1.121 33.3501 0.683417C33.7877 0.245833 34.3812 0 35 0C35.6188 0 36.2123 0.245833 36.6499 0.683417C37.0875 1.121 37.3333 1.71449 37.3333 2.33333V8.16667C37.3333 8.78551 37.0875 9.379 36.6499 9.81658C36.2123 10.2542 35.6188 10.5 35 10.5C34.3812 10.5 33.7877 10.2542 33.3501 9.81658C32.9125 9.379 32.6667 8.78551 32.6667 8.16667ZM10.2375 13.5625C9.98259 13.3533 9.7743 13.093 9.62604 12.7985C9.47778 12.5039 9.39282 12.1816 9.37665 11.8522C9.36047 11.5228 9.41343 11.1937 9.53211 10.886C9.6508 10.5784 9.83258 10.2989 10.0658 10.0658C10.2989 9.83258 10.5784 9.6508 10.886 9.53211C11.1937 9.41343 11.5228 9.36047 11.8522 9.37665C12.1816 9.39282 12.5039 9.47778 12.7985 9.62604C13.093 9.7743 13.3533 9.98259 13.5625 10.2375L17.675 14.3792C18.1114 14.8166 18.3564 15.4092 18.3564 16.0271C18.3564 16.6449 18.1114 17.2376 17.675 17.675C17.2339 18.1044 16.6427 18.3446 16.0271 18.3446C15.4115 18.3446 14.8203 18.1044 14.3792 17.675L10.2375 13.5625ZM8.16667 37.3333H2.33333C1.71449 37.3333 1.121 37.0875 0.683417 36.6499C0.245833 36.2123 0 35.6188 0 35C0 34.3812 0.245833 33.7877 0.683417 33.3501C1.121 32.9125 1.71449 32.6667 2.33333 32.6667H8.16667C8.78551 32.6667 9.379 32.9125 9.81658 33.3501C10.2542 33.7877 10.5 34.3812 10.5 35C10.5 35.6188 10.2542 36.2123 9.81658 36.6499C9.379 37.0875 8.78551 37.3333 8.16667 37.3333ZM17.675 52.325C18.1114 52.7624 18.3564 53.3551 18.3564 53.9729C18.3564 54.5908 18.1114 55.1834 17.675 55.6208L13.5625 59.7625C13.1146 60.1906 12.5196 60.4307 11.9 60.4333C11.2816 60.4249 10.6886 60.1857 10.2375 59.7625C9.79934 59.3201 9.55354 58.7226 9.55354 58.1C9.55354 57.4774 9.79934 56.8799 10.2375 56.4375L14.3792 52.325C14.8166 51.8886 15.4092 51.6436 16.0271 51.6436C16.6449 51.6436 17.2376 51.8886 17.675 52.325ZM37.3333 61.8333V67.6667C37.3333 68.2855 37.0875 68.879 36.6499 69.3166C36.2123 69.7542 35.6188 70 35 70C34.3812 70 33.7877 69.7542 33.3501 69.3166C32.9125 68.879 32.6667 68.2855 32.6667 67.6667V61.8333C32.6667 61.2145 32.9125 60.621 33.3501 60.1834C33.7877 59.7458 34.3812 59.5 35 59.5C35.6188 59.5 36.2123 59.7458 36.6499 60.1834C37.0875 60.621 37.3333 61.2145 37.3333 61.8333ZM59.7625 56.4375C60.2007 56.8799 60.4465 57.4774 60.4465 58.1C60.4465 58.7226 60.2007 59.3201 59.7625 59.7625C59.3114 60.1857 58.7184 60.4249 58.1 60.4333C57.4804 60.4307 56.8854 60.1906 56.4375 59.7625L52.325 55.6208C51.9228 55.177 51.7067 54.5955 51.7215 53.9967C51.7362 53.3979 51.9807 52.8277 52.4042 52.4042C52.8277 51.9807 53.3979 51.7362 53.9967 51.7215C54.5955 51.7067 55.177 51.9228 55.6208 52.325L59.7625 56.4375ZM70 35C70 35.6188 69.7542 36.2123 69.3166 36.6499C68.879 37.0875 68.2855 37.3333 67.6667 37.3333H61.8333C61.2145 37.3333 60.621 37.0875 60.1834 36.6499C59.7458 36.2123 59.5 35.6188 59.5 35C59.5 34.3812 59.7458 33.7877 60.1834 33.3501C60.621 32.9125 61.2145 32.6667 61.8333 32.6667H67.6667C68.2855 32.6667 68.879 32.9125 69.3166 33.3501C69.7542 33.7877 70 34.3812 70 35ZM52.325 17.675C51.8886 17.2376 51.6436 16.6449 51.6436 16.0271C51.6436 15.4092 51.8886 14.8166 52.325 14.3792L56.4375 10.2375C56.8909 9.86542 57.4664 9.67527 58.0522 9.70404C58.638 9.73281 59.1921 9.97844 59.6068 10.3932C60.0216 10.8079 60.2672 11.362 60.296 11.9478C60.3247 12.5336 60.1346 13.1091 59.7625 13.5625L55.6208 17.675C55.1797 18.1044 54.5885 18.3446 53.9729 18.3446C53.3573 18.3446 52.7661 18.1044 52.325 17.675Z" fill="white"/>
</svg>
